<?xml version="1.0" standalone="no"?>
<!DOCTYPE svg PUBLIC "-//W3C//DTD SVG 20010904//EN"
 "http://www.w3.org/TR/2001/REC-SVG-20010904/DTD/svg10.dtd">
<svg version="1.0" xmlns="http://www.w3.org/2000/svg"
 width="225.000000pt" height="225.000000pt" viewBox="0 0 225.000000 225.000000"
 preserveAspectRatio="xMidYMid meet">

<g transform="translate(0.000000,225.000000) scale(0.100000,-0.100000)"
fill="#000000" stroke="none">
<path d="M810 2060 c-106 -15 -210 -40 -291 -71 l-77 -30 -7 -214 c-8 -234 0
-344 36 -476 12 -44 23 -78 26 -76 2 3 -5 38 -17 78 -31 114 -44 87 138 282
l55 59 114 -114 114 -113 105 112 105 112 106 -115 106 -115 116 115 116 116
66 -72 c36 -40 82 -92 104 -116 l38 -43 -13 -72 c-60 -341 -298 -710 -589
-911 l-40 -28 -68 47 c-90 64 -275 252 -339 345 -65 95 -134 224 -170 317 -15
40 -29 71 -31 69 -6 -6 42 -126 82 -206 80 -159 198 -316 318 -422 70 -62 199
-158 212 -158 21 0 161 119 252 214 248 256 376 546 413 931 11 109 7 392 -6
436 -9 31 -138 75 -309 106 -96 17 -567 26 -665 13z m295 -216 c0 -94 4 -151
10 -151 6 0 10 57 10 151 l0 151 25 -2 c14 -1 52 -5 85 -10 l60 -8 0 -150 0
-150 -180 0 -180 0 0 150 0 150 58 6 c32 4 61 9 64 13 4 4 16 6 28 4 19 -3 20
-10 20 -154z m-425 40 c0 -13 5 -24 10 -24 7 0 7 -6 1 -19 -12 -21 -5 -29 41
-49 22 -9 30 -8 43 4 18 19 18 19 0 37 -13 13 -10 15 20 14 19 -1 35 -2 35 -3
0 0 -18 -40 -40 -88 l-41 -86 -83 0 -82 0 -17 34 c-12 26 -13 36 -4 40 7 2 4
5 -5 5 -18 1 -58 68 -58 97 0 13 3 14 14 5 7 -6 21 -8 31 -5 15 6 16 4 5 -16
-16 -30 7 -57 36 -42 11 6 27 13 38 16 14 5 17 13 13 33 -6 31 19 87 33 78 6
-4 10 -17 10 -31z m888 3 c2 -15 8 -27 15 -27 8 0 8 -3 -1 -12 -7 -7 -12 -17
-12 -23 0 -14 70 -43 88 -37 15 5 16 34 2 48 -7 7 2 10 25 11 19 1 35 -1 35
-3 0 -19 -53 -103 -63 -100 -6 1 -9 1 -4 -1 11 -7 8 -36 -7 -55 -11 -15 -29
-18 -93 -18 l-81 0 -15 32 c-12 25 -13 34 -4 40 8 5 6 8 -5 8 -20 0 -73 96
-59 105 5 3 13 1 16 -5 4 -6 16 -8 26 -5 18 6 19 5 7 -14 -17 -28 9 -58 38
-43 11 6 27 13 37 16 17 5 25 46 8 46 -5 0 -1 16 7 35 19 40 36 41 40 2z"/>
<path d="M1201 1844 c0 -11 3 -14 6 -6 3 7 2 16 -1 19 -3 4 -6 -2 -5 -13z"/>
<path d="M1151 1774 c0 -11 3 -14 6 -6 3 7 2 16 -1 19 -3 4 -6 -2 -5 -13z"/>
<path d="M1260 1706 c0 -2 8 -10 18 -17 15 -13 16 -12 3 4 -13 16 -21 21 -21
13z"/>
<path d="M656 1795 c-9 -23 -8 -25 9 -25 17 0 19 9 6 28 -7 11 -10 10 -15 -3z"/>
<path d="M628 1753 c18 -2 45 -2 60 0 15 2 0 4 -33 4 -33 0 -45 -2 -27 -4z"/>
<path d="M620 1730 c0 -5 5 -10 11 -10 5 0 7 5 4 10 -3 6 -8 10 -11 10 -2 0
-4 -4 -4 -10z"/>
<path d="M660 1730 c0 -5 5 -10 10 -10 6 0 10 5 10 10 0 6 -4 10 -10 10 -5 0
-10 -4 -10 -10z"/>
<path d="M700 1730 c0 -5 5 -10 11 -10 5 0 7 5 4 10 -3 6 -8 10 -11 10 -2 0
-4 -4 -4 -10z"/>
<path d="M740 1720 c0 -5 5 -10 11 -10 5 0 7 5 4 10 -3 6 -8 10 -11 10 -2 0
-4 -4 -4 -10z"/>
<path d="M598 1693 c6 -2 18 -2 25 0 6 3 1 5 -13 5 -14 0 -19 -2 -12 -5z"/>
<path d="M708 1693 c7 -3 16 -2 19 1 4 3 -2 6 -13 5 -11 0 -14 -3 -6 -6z"/>
<path d="M1540 1785 c-10 -13 -9 -15 8 -15 15 0 20 5 16 15 -4 8 -7 15 -9 15
-1 0 -8 -7 -15 -15z"/>
<path d="M1518 1753 c18 -2 45 -2 60 0 15 2 0 4 -33 4 -33 0 -45 -2 -27 -4z"/>
<path d="M1510 1730 c0 -5 5 -10 11 -10 5 0 7 5 4 10 -3 6 -8 10 -11 10 -2 0
-4 -4 -4 -10z"/>
<path d="M1550 1730 c0 -5 5 -10 10 -10 6 0 10 5 10 10 0 6 -4 10 -10 10 -5 0
-10 -4 -10 -10z"/>
<path d="M1630 1720 c0 -5 5 -10 11 -10 5 0 7 5 4 10 -3 6 -8 10 -11 10 -2 0
-4 -4 -4 -10z"/>
<path d="M1488 1693 c6 -2 18 -2 25 0 6 3 1 5 -13 5 -14 0 -19 -2 -12 -5z"/>
<path d="M1598 1693 c7 -3 16 -2 19 1 4 3 -2 6 -13 5 -11 0 -14 -3 -6 -6z"/>
<path d="M658 1284 c-12 -12 -14 -24 -7 -46 4 -17 4 -40 -1 -54 -13 -33 0 -62
46 -103 21 -19 33 -36 27 -38 -7 -3 -7 -11 0 -28 10 -20 18 -23 67 -23 66 0
77 5 53 23 -28 20 -8 30 60 29 41 0 78 -7 110 -21 26 -12 47 -19 47 -16 0 2
-10 19 -22 35 -21 30 -21 31 -2 45 17 13 14 14 -33 8 -44 -6 -54 -4 -73 15
l-21 21 25 26 c29 29 34 45 11 37 -18 -7 -19 0 -4 28 10 19 9 20 -7 13 -128
-52 -164 -51 -164 5 0 51 -75 81 -112 44z"/>
<path d="M1170 1270 c-14 -11 -19 -20 -13 -20 9 0 11 -18 7 -66 l-5 -66 43
-40 c34 -31 40 -41 28 -48 -12 -7 -12 -10 3 -16 10 -4 16 -12 13 -19 -3 -9 12
-13 60 -13 61 0 82 9 49 22 -29 11 -15 25 31 32 36 5 62 1 120 -18 63 -22 72
-23 64 -8 -5 9 -16 22 -24 30 -21 17 -20 25 7 38 18 10 14 11 -29 6 -41 -4
-55 -2 -75 14 l-24 20 21 24 c28 30 41 53 26 44 -19 -12 -35 4 -21 20 20 24 4
25 -45 3 -82 -36 -125 -26 -126 28 0 51 -63 70 -110 33z"/>
<path d="M1723 964 l-25 -25 26 -28 c14 -15 26 -30 26 -34 0 -4 -11 -25 -25
-47 -29 -46 -32 -76 -9 -102 16 -17 15 -20 -11 -60 -71 -108 -277 -294 -385
-348 -44 -22 -121 -40 -91 -21 19 12 5 31 -22 30 -20 0 -21 -1 -3 -8 14 -5 16
-10 8 -15 -7 -4 -12 -17 -11 -29 0 -12 3 -16 6 -9 2 6 16 12 29 12 104 0 435
285 518 445 l13 25 32 -29 33 -30 -27 -50 c-65 -119 -267 -314 -412 -399 -34
-20 -61 -38 -59 -40 7 -6 135 76 200 128 84 66 193 182 255 271 55 78 59 90
36 109 -22 18 -19 44 15 110 42 84 40 101 -18 139 -59 38 -66 38 -99 5z m51
10 c23 -9 20 -27 -3 -19 -12 3 -21 0 -25 -10 -3 -8 -10 -15 -16 -15 -17 0 -11
28 8 39 21 13 17 12 36 5z m68 -41 c25 -22 23 -36 -13 -115 -32 -68 -42 -78
-55 -57 -3 6 -19 9 -35 5 -38 -7 -37 7 2 70 18 27 38 64 46 82 15 36 28 40 55
15z m-70 -19 c-5 -26 -10 -30 -23 -17 -14 14 -3 46 14 40 6 -2 10 -13 9 -23z
m-25 -181 c-3 -3 -11 -2 -17 2 -9 6 -9 10 1 16 14 8 27 -7 16 -18z"/>
<path d="M433 949 c-64 -37 -66 -50 -22 -143 29 -61 30 -67 15 -88 -23 -32
-20 -63 10 -95 l26 -28 -21 29 c-28 38 -26 64 5 97 l26 28 34 -50 c110 -164
367 -390 477 -420 42 -11 41 -9 23 -54 -9 -21 -23 -35 -38 -38 -22 -4 -22 -4
3 -6 19 -1 29 6 37 24 6 14 20 25 29 25 14 0 15 2 4 9 -8 5 -11 16 -7 29 4 11
2 23 -4 27 -21 13 -9 24 33 28 l42 4 -42 1 c-31 2 -48 -3 -63 -18 l-20 -20
-43 21 c-63 32 -115 70 -193 140 -86 78 -224 230 -224 246 0 7 -4 13 -10 13
-5 0 -13 12 -16 26 -5 20 -11 24 -28 20 -18 -4 -25 5 -49 57 -35 79 -34 98 3
119 29 17 31 17 37 0 21 -60 93 -192 93 -170 0 8 -11 32 -25 52 -14 20 -25 43
-25 50 0 7 11 23 25 36 30 28 31 34 5 60 -26 26 -35 25 -97 -11z m92 1 c10
-11 15 -23 11 -28 -4 -4 -14 2 -22 12 -11 16 -16 17 -29 6 -12 -10 -15 -10
-15 2 0 33 29 37 55 8z m-15 -55 c-13 -16 -15 -15 -27 1 -10 13 -10 21 -1 31
10 12 14 12 26 -1 13 -13 13 -17 2 -31z m510 -605 c0 -5 -4 -10 -10 -10 -5 0
-10 5 -10 10 0 6 5 10 10 10 6 0 10 -4 10 -10z"/>
<path d="M956 922 c-38 -8 -54 -45 -34 -78 4 -5 3 -16 -3 -24 -20 -32 -9 -63
36 -106 31 -28 42 -45 34 -50 -8 -5 -7 -10 5 -16 13 -7 14 -13 6 -22 -8 -11 2
-13 52 -11 77 4 73 2 58 20 -20 24 -2 35 56 35 35 0 76 -9 114 -24 l61 -25
-21 29 c-12 16 -26 32 -32 36 -7 4 -3 13 11 23 20 15 19 16 -30 12 -37 -2 -55
1 -69 14 -19 17 -19 18 7 49 22 26 23 32 9 34 -19 4 -19 7 -6 32 9 17 4 16
-51 -6 -81 -33 -111 -29 -120 13 -11 53 -38 75 -83 65z m14 -22 c0 -5 -4 -10
-10 -10 -5 0 -10 5 -10 10 0 6 5 10 10 10 6 0 10 -4 10 -10z"/>
<path d="M508 753 c6 -2 12 -11 12 -19 0 -8 6 -11 15 -8 14 6 13 8 -2 20 -10
7 -22 13 -28 13 -5 0 -4 -3 3 -6z"/>
<path d="M1764 666 c11 -9 24 -16 30 -16 12 0 7 5 -24 19 -24 11 -24 11 -6 -3z"/>
<path d="M455 650 c-3 -5 -1 -10 4 -10 6 0 11 5 11 10 0 6 -2 10 -4 10 -3 0
-8 -4 -11 -10z"/>
<path d="M489 630 c-20 -16 -20 -19 -5 -13 15 5 18 3 13 -10 -5 -14 -4 -15 14
-4 16 10 17 13 4 15 -13 3 -14 7 -4 18 17 20 5 17 -22 -6z"/>
<path d="M1728 643 c22 -9 13 -25 -10 -18 -19 5 -20 4 -8 -5 8 -6 24 -16 35
-22 18 -10 19 -10 6 5 -12 15 -11 17 10 17 23 0 23 1 -5 15 -15 8 -31 15 -35
14 -3 0 0 -3 7 -6z"/>
<path d="M1690 593 c8 -3 22 -11 30 -17 13 -10 13 -9 1 7 -7 9 -21 17 -30 16
-13 0 -14 -1 -1 -6z"/>
<path d="M490 555 c19 -19 36 -35 39 -35 3 0 -10 16 -29 35 -19 19 -36 35 -39
35 -3 0 10 -16 29 -35z"/>
<path d="M535 559 c-4 -6 -5 -12 -2 -15 2 -3 7 2 10 11 7 17 1 20 -8 4z"/>
<path d="M1677 549 c7 -7 15 -10 18 -7 3 3 -2 9 -12 12 -14 6 -15 5 -6 -5z"/>
<path d="M1625 539 c-8 -12 22 -49 39 -49 6 1 1 9 -11 19 -26 22 -30 36 -8 27
8 -3 15 -1 15 4 0 13 -27 13 -35 -1z"/>
<path d="M582 515 c0 -16 2 -22 5 -12 2 9 2 23 0 30 -3 6 -5 -1 -5 -18z"/>
<path d="M550 486 c30 -33 180 -170 180 -164 0 3 -46 47 -102 98 -57 52 -92
81 -78 66z"/>
<path d="M617 490 c-9 -11 -13 -20 -8 -20 4 0 16 9 26 20 10 11 14 20 9 20 -5
0 -17 -9 -27 -20z"/>
<path d="M657 471 c-4 -17 -3 -21 5 -13 5 5 8 16 6 23 -3 8 -7 3 -11 -10z"/>
<path d="M1591 486 c2 -2 15 -9 29 -15 24 -11 24 -11 6 3 -16 13 -49 24 -35
12z"/>
<path d="M669 438 c-12 -23 -12 -23 10 -4 23 21 26 26 11 26 -5 0 -15 -10 -21
-22z"/>
<path d="M1545 420 c10 -11 23 -20 28 -20 6 0 2 9 -8 20 -10 11 -23 20 -28 20
-6 0 -2 -9 8 -20z"/>
<path d="M718 387 c-3 -19 -2 -25 4 -19 6 6 8 18 6 28 -3 14 -5 12 -10 -9z"/>
<path d="M1500 381 c14 -11 30 -21 35 -21 11 0 -7 14 -40 31 -13 7 -12 3 5
-10z"/>
<path d="M750 365 c-7 -9 -11 -17 -9 -20 3 -2 10 5 17 15 14 24 10 26 -8 5z"/>
<path d="M1450 351 c5 -11 15 -23 21 -27 6 -3 3 5 -6 20 -20 30 -30 35 -15 7z"/>
<path d="M813 338 c-15 -20 -25 -38 -20 -38 3 0 12 11 21 25 17 26 16 35 -1
13z"/>
<path d="M755 300 c10 -11 20 -20 23 -20 3 0 -3 9 -13 20 -10 11 -20 20 -23
20 -3 0 3 -9 13 -20z"/>
<path d="M1380 295 c0 -8 4 -15 10 -15 5 0 7 7 4 15 -4 8 -8 15 -10 15 -2 0
-4 -7 -4 -15z"/>
<path d="M1322 265 c6 -14 15 -25 20 -25 5 0 1 11 -8 25 -9 14 -18 25 -20 25
-2 0 2 -11 8 -25z"/>
<path d="M1280 267 c0 -10 41 -49 46 -45 2 3 -7 15 -21 28 -14 13 -25 20 -25
17z"/>
<path d="M946 245 c-9 -26 -7 -32 5 -12 6 10 9 21 6 23 -2 3 -7 -2 -11 -11z"/>
<path d="M1130 243 c43 -3 78 -9 82 -16 5 -8 8 -6 8 6 0 15 -10 17 -82 15
l-83 -2 75 -3z"/>
<path d="M1281 214 c0 -11 3 -14 6 -6 3 7 2 16 -1 19 -3 4 -6 -2 -5 -13z"/>
<path d="M1223 200 c2 -8 12 -16 23 -17 13 -2 15 -1 4 4 -8 3 -19 11 -23 17
-6 7 -7 6 -4 -4z"/>
<path d="M1285 190 c-13 -6 -15 -9 -5 -9 8 0 22 4 30 9 18 12 2 12 -25 0z"/>
</g>
</svg>
