<?xml version="1.0" standalone="no"?>
<!DOCTYPE svg PUBLIC "-//W3C//DTD SVG 20010904//EN"
 "http://www.w3.org/TR/2001/REC-SVG-20010904/DTD/svg10.dtd">
<svg version="1.0" xmlns="http://www.w3.org/2000/svg"
 width="101.000000pt" height="130.000000pt" viewBox="0 0 101.000000 130.000000"
 preserveAspectRatio="xMidYMid meet">

<g transform="translate(0.000000,130.000000) scale(0.100000,-0.100000)"
fill="#000000" stroke="none">
<path d="M470 1275 c0 -20 -5 -25 -25 -25 -22 0 -25 -4 -25 -38 0 -31 -5 -41
-24 -50 -13 -6 -40 -25 -60 -42 -33 -29 -36 -37 -36 -86 l0 -54 -45 0 c-40 0
-45 -3 -52 -27 -24 -83 3 -260 62 -419 63 -168 183 -381 226 -405 17 -9 25 -4
53 26 74 80 203 354 246 520 25 97 36 218 23 265 -9 33 -12 35 -56 38 l-47 3
0 54 c0 48 -3 56 -36 85 -20 17 -47 36 -60 42 -19 9 -24 19 -24 50 0 34 -3 38
-25 38 -20 0 -25 5 -25 25 0 22 -4 25 -35 25 -31 0 -35 -3 -35 -25z m50 -25
c0 -11 8 -20 22 -22 32 -5 35 -28 4 -28 -21 0 -26 -5 -26 -25 0 -16 -6 -25
-15 -25 -9 0 -15 9 -15 25 0 20 -5 25 -26 25 -31 0 -28 23 4 28 13 2 22 11 22
21 0 10 3 21 6 24 11 10 24 -3 24 -23z m-50 -97 c0 -13 -61 -44 -72 -37 -6 4
4 15 23 25 38 20 49 23 49 12z m119 -12 c19 -10 29 -21 23 -25 -11 -7 -72 24
-72 37 0 11 11 8 49 -12z m-41 -37 c18 -12 22 -25 22 -70 l0 -54 -65 0 -65 0
0 54 c0 45 4 58 22 70 12 9 32 16 43 16 11 0 31 -7 43 -16z m-154 -20 c12 -4
16 -20 16 -55 l0 -49 -40 0 -40 0 0 48 c0 27 3 52 7 55 8 9 36 9 57 1z m284
-51 l3 -53 -40 0 -41 0 0 49 c0 52 8 61 50 58 23 -2 25 -7 28 -54z m102 -93
c0 -6 -34 -10 -83 -10 -93 0 -124 -13 -114 -49 3 -14 -1 -24 -13 -31 -23 -12
-30 -4 -23 30 7 38 -25 57 -68 40 -29 -12 -40 -45 -17 -52 20 -7 -1 -26 -22
-21 -15 4 -18 11 -13 33 7 39 -18 50 -116 50 -47 0 -81 4 -81 10 0 6 98 10
275 10 177 0 275 -4 275 -10z m-380 -48 c0 -4 -5 -13 -11 -19 -18 -18 -5 -37
35 -51 47 -17 69 -3 64 42 -2 24 1 32 16 34 15 3 18 -1 14 -22 -3 -17 1 -35
11 -48 16 -19 20 -20 55 -7 42 15 55 34 37 52 -22 22 -9 27 80 27 l92 0 -6
-66 c-4 -37 -8 -68 -9 -69 -2 -2 -51 5 -110 14 l-108 18 0 -23 c0 -12 -8 -30
-17 -39 -14 -14 -14 -20 -4 -37 13 -22 9 -34 -8 -23 -6 3 -11 15 -11 26 0 10
-7 19 -15 19 -8 0 -15 -9 -15 -19 0 -11 -5 -23 -11 -26 -17 -11 -21 1 -8 23
10 17 10 23 -4 37 -9 9 -17 27 -17 39 l0 23 -107 -18 c-60 -9 -109 -16 -110
-15 0 0 -4 31 -8 69 l-7 67 91 0 c50 0 91 -4 91 -8z m-49 -172 c-46 -22 -87
-40 -91 -40 -9 0 -21 42 -15 49 5 5 138 28 170 29 11 1 -18 -16 -64 -38z m345
24 c66 -8 78 -16 69 -43 -8 -26 -15 -24 -118 25 -58 28 -65 34 -37 30 19 -3
58 -8 86 -12z m-246 -22 c0 -20 -43 -52 -70 -52 -17 0 -30 4 -30 8 0 6 47 31
98 51 1 1 2 -3 2 -7z m214 -43 c6 -5 -4 -9 -27 -9 -34 0 -77 29 -77 52 0 8 90
-28 104 -43z m-234 -79 l0 -41 -72 3 -71 3 -13 38 -13 37 85 0 84 0 0 -40z
m120 -15 l0 -54 79 -3 79 -3 -15 -37 -15 -38 -64 0 -64 0 0 -119 c0 -105 -2
-121 -21 -145 l-21 -27 -24 22 c-23 21 -24 29 -24 146 l0 123 -64 0 -64 0 -15
38 -15 37 79 3 79 3 0 54 0 55 45 0 45 0 0 -55z m186 18 l-13 -38 -71 -3 -72
-3 0 41 0 40 84 0 85 0 -13 -37z m-306 -260 c0 -57 -3 -74 -11 -63 -13 20 -69
128 -69 135 0 3 18 5 40 5 l40 0 0 -77z m230 72 c0 -7 -56 -115 -69 -135 -8
-11 -11 6 -11 63 l0 77 40 0 c22 0 40 -2 40 -5z"/>
<path d="M932 755 c-2 -16 -9 -21 -29 -20 -24 0 -28 -4 -30 -30 -1 -19 0 -22
4 -10 7 26 24 36 40 23 19 -16 16 -26 -14 -42 -38 -21 -12 -20 32 1 33 16 51
38 21 27 -11 -4 -16 4 -19 33 -2 21 -4 29 -5 18z"/>
<path d="M60 737 c0 -14 69 -51 78 -42 6 6 7 6 -40 33 -26 15 -38 17 -38 9z"/>
<path d="M40 691 c0 -5 12 -12 28 -16 27 -8 27 -8 -18 -28 -25 -11 -40 -21
-35 -23 60 -17 84 -21 80 -13 -4 5 -15 9 -26 9 -29 0 -14 17 21 25 17 4 30 11
30 16 0 5 -2 9 -4 9 -2 0 -20 7 -40 15 -20 8 -36 11 -36 6z"/>
<path d="M970 645 c7 -9 15 -13 17 -11 7 7 -7 26 -19 26 -6 0 -6 -6 2 -15z"/>
<path d="M937 619 c4 -13 8 -18 11 -10 2 7 -1 18 -6 23 -8 8 -9 4 -5 -13z"/>
<path d="M901 614 c0 -11 3 -14 6 -6 3 7 2 16 -1 19 -3 4 -6 -2 -5 -13z"/>
<path d="M975 604 c-6 -9 -23 -16 -38 -16 -14 0 -24 -4 -21 -9 6 -11 45 -12
60 -1 13 9 26 42 16 42 -4 0 -12 -7 -17 -16z"/>
<path d="M45 580 c-3 -5 -1 -10 4 -10 6 0 11 5 11 10 0 6 -2 10 -4 10 -3 0 -8
-4 -11 -10z"/>
<path d="M910 550 c0 -5 5 -10 11 -10 5 0 7 5 4 10 -3 6 -8 10 -11 10 -2 0 -4
-4 -4 -10z"/>
<path d="M0 521 c0 -33 23 -61 49 -61 24 0 39 19 47 56 5 29 5 29 -45 31 -50
3 -51 2 -51 -26z m83 3 c12 -13 -14 -44 -37 -44 -22 0 -36 16 -36 41 0 10 63
13 73 3z"/>
<path d="M916 494 c-3 -9 -6 -21 -5 -27 0 -7 5 -1 10 12 8 20 15 23 49 19 22
-2 40 0 40 4 0 5 -20 8 -44 8 -31 0 -46 -5 -50 -16z"/>
<path d="M26 418 c-19 -27 -11 -39 8 -12 14 18 15 18 26 -6 10 -23 10 -24 6
-2 -6 33 26 25 35 -8 5 -17 7 -19 8 -7 3 53 -54 77 -83 35z"/>
<path d="M910 433 c0 -4 20 -13 45 -19 36 -8 45 -8 45 3 0 8 -12 13 -29 13
-16 0 -36 3 -45 6 -9 3 -16 2 -16 -3z"/>
<path d="M894 373 c-9 -34 6 -57 39 -61 33 -4 68 41 47 61 -10 10 -12 9 -7 -4
12 -35 -39 -53 -64 -23 -10 12 -10 20 -1 35 7 11 8 19 2 19 -5 0 -13 -12 -16
-27z"/>
<path d="M20 371 c0 -10 19 -25 25 -20 1 2 -3 10 -11 17 -8 7 -14 8 -14 3z"/>
<path d="M80 332 c-44 -20 -44 -21 -38 -27 3 -3 24 3 47 14 24 10 39 21 34 24
-4 2 -24 -3 -43 -11z"/>
<path d="M860 303 c0 -11 78 -52 84 -45 4 3 -12 16 -35 29 -45 25 -49 27 -49
16z"/>
<path d="M105 290 c-3 -5 -1 -10 4 -10 6 0 11 5 11 10 0 6 -2 10 -4 10 -3 0
-8 -4 -11 -10z"/>
<path d="M123 249 c-18 -12 -33 -25 -33 -31 0 -5 12 0 27 11 14 12 27 20 29
18 2 -1 -1 -20 -6 -42 -5 -22 -8 -40 -7 -42 6 -5 67 49 67 59 0 7 -11 1 -26
-13 -14 -13 -23 -17 -20 -9 11 37 16 70 9 70 -5 0 -23 -10 -40 -21z"/>
<path d="M817 244 c-4 -4 10 -20 30 -36 l36 -28 23 21 c13 12 21 27 17 32 -3
6 -10 1 -14 -11 -10 -28 -13 -27 -53 3 -18 14 -36 22 -39 19z"/>
<path d="M770 191 c-15 -29 -12 -46 9 -65 24 -22 56 -14 72 17 12 22 12 22 -9
3 -13 -11 -28 -16 -38 -12 -15 6 -14 10 7 34 l24 27 -26 -23 c-20 -17 -29 -20
-35 -11 -4 7 2 19 16 31 17 13 18 18 6 18 -8 0 -20 -9 -26 -19z"/>
<path d="M186 168 c-20 -28 -20 -33 0 -52 23 -23 51 -20 69 8 34 52 -34 94
-69 44z m64 -7 c0 -21 -25 -51 -41 -51 -16 0 -21 27 -9 49 14 27 50 28 50 2z"/>
<path d="M709 152 l-27 -17 22 -43 c12 -24 25 -40 28 -36 4 3 -2 22 -14 42
l-20 36 24 18 c30 23 21 23 -13 0z"/>
<path d="M276 107 l-30 -42 29 25 28 25 -6 -32 c-8 -40 4 -42 33 -6 l21 28 -6
-37 c-3 -21 -1 -39 5 -43 6 -4 10 7 10 29 0 19 3 41 6 50 4 10 1 16 -9 16 -8
0 -17 -7 -21 -15 -9 -25 -27 -17 -20 9 10 40 -9 36 -40 -7z"/>
<path d="M735 120 c-3 -5 -1 -10 4 -10 6 0 11 5 11 10 0 6 -2 10 -4 10 -3 0
-8 -4 -11 -10z"/>
<path d="M572 94 c-24 -17 -29 -53 -10 -72 17 -17 53 -15 69 5 13 15 12 15 -7
3 -21 -13 -54 -8 -54 8 0 4 12 13 28 19 27 11 27 11 -6 6 -27 -5 -31 -3 -26
11 6 16 17 20 43 17 7 -2 10 2 6 8 -8 15 -17 14 -43 -5z"/>
<path d="M407 83 c-14 -49 -17 -73 -9 -73 4 0 12 20 18 45 6 25 7 45 3 45 -4
0 -10 -8 -12 -17z"/>
<path d="M452 50 c1 -35 3 -43 5 -22 2 17 6 32 9 32 2 0 18 -15 34 -32 l29
-33 1 28 c0 16 -4 26 -10 22 -5 -3 -23 9 -39 27 l-30 33 1 -55z"/>
<path d="M511 74 c0 -11 3 -14 6 -6 3 7 2 16 -1 19 -3 4 -6 -2 -5 -13z"/>
<path d="M655 80 c-3 -5 -1 -10 4 -10 6 0 11 5 11 10 0 6 -2 10 -4 10 -3 0 -8
-4 -11 -10z"/>
</g>
</svg>
